<svg id="Layer_1" data-name="Layer 1" xmlns="http://www.w3.org/2000/svg" viewBox="0 0 400 160"><defs><style>.cls-1{fill:#111;}</style></defs><title>Untitled-1</title><path class="cls-1" d="M77.61,72a2,2,0,0,1-2.81.12,2,2,0,0,1-.66-1.41q-1-16.93-5.65-23.75T57.08,41.28q-6.75,1.13-14,7.87A78.62,78.62,0,0,0,29.77,66a93.46,93.46,0,0,0-9.53,21.31,54.75,54.75,0,0,0-2.47,21.22,25.31,25.31,0,0,0,7.78,16.56q6.84,6.54,21.22,7.28a9.56,9.56,0,0,0,7.59-3.81A34.48,34.48,0,0,0,59.92,119a93.2,93.2,0,0,0,3.72-11.22q1.44-5.53,2.07-8.85-9.45,4.44-14.91,5.54c-3.65.73-6.27.8-7.88.21s-2.49-1.37-2.65-2.37a2.28,2.28,0,0,1,.81-2.34c.71-.57,1.52-.45,2.44.34q2.68,2.05,9.15-.25A122.72,122.72,0,0,0,66.58,94q.44-2.76.75-5.44a1.94,1.94,0,0,1,.78-1.31,2.07,2.07,0,0,1,1.47-.44,1.91,1.91,0,0,1,1.34.75A2,2,0,0,1,71.33,89l-.25,2.81a75.86,75.86,0,0,1,11-4.69,2.09,2.09,0,0,1,1.5.19,2.05,2.05,0,0,1,.78,2.75,2.08,2.08,0,0,1-1.22.94,89.53,89.53,0,0,0-12.56,5.56c-.29,2.62-.56,5.21-.81,7.75q-1.87,16.06-2.63,27.75t1.07,16.44c.58,1.5,1.7,1.91,3.37,1.25a1.86,1.86,0,0,1,1.5,0,2.13,2.13,0,0,1,1.13,1.06,2.1,2.1,0,0,1,0,1.56,1.89,1.89,0,0,1-1.07,1.06q-6.24,2.56-8.62-3.31-1.63-4.07-1.56-11.94t1.12-18.68c-.58,1.5-1.21,2.91-1.87,4.25a29.58,29.58,0,0,1-6.75,9.37,12.42,12.42,0,0,1-8.82,3.31q-16.56-.93-24.43-8.12a27.31,27.31,0,0,1-8.94-18.19,57.83,57.83,0,0,1,2.87-23.28,100,100,0,0,1,11-23.31A84.55,84.55,0,0,1,42.49,45.21q8.34-7.3,16.12-8.31t13.13,6.78q5.34,7.78,6.4,26.85A2.16,2.16,0,0,1,77.61,72Z"/><path class="cls-1" d="M88.36,103q-1.5,7.68,1.06,8.78t7-1.91a55,55,0,0,0,8.78-7.44,44.84,44.84,0,0,0,6.31-7.75q.38-10.8,1.13-21.68c-1.09.37-2.5.89-4.25,1.56q-5.07,2-11.59,4.19a69.14,69.14,0,0,1-11.94,3c-3.61.52-6,0-7.16-1.41a1.87,1.87,0,0,1-.31-1.53,2.17,2.17,0,0,1,.87-1.28,2.12,2.12,0,0,1,1.54-.28,2,2,0,0,1,1.28.9q.75.75,5.56-.56t10.94-3.44c4.08-1.41,7.68-2.71,10.81-3.87q3.06-1.12,4.56-1.63,2.31-27.69,6.25-39.19t7.31-9.81q3.37,1.7,4.1,13.63T127.11,64.4a55.13,55.13,0,0,1,13.56-1.81,2,2,0,0,1,1.37.66,1.94,1.94,0,0,1,.57,1.4,2.14,2.14,0,0,1-.66,1.44,2,2,0,0,1-1.41.56A51.48,51.48,0,0,0,126,68.84a112.49,112.49,0,0,1-10.56,26.94q-.93,21.56.06,43a3.18,3.18,0,0,1-.18.5,1.06,1.06,0,0,1,.56,0,1.94,1.94,0,0,1,1.31.78,1.89,1.89,0,0,1,.38,1.47,16.94,16.94,0,0,1-.94,4.25q-2.25,4.36-3.47,2c-.81-1.61-1.39-4.55-1.72-8.82s-.51-9-.53-14.09,0-9.77.13-13.94.17-6.91.21-8.25c0-.29,0-.46.07-.5A41.26,41.26,0,0,1,102,111a26.12,26.12,0,0,1-10.18,4.56c-3.21.56-5.57-.3-7.07-2.6s-1.47-6.47.07-12.56q2.11-7.37,5-9.59t5.09-1a4.61,4.61,0,0,1,2.38,4.15q.15,3-3.16,6A15.64,15.64,0,0,1,88.36,103Zm3.25-6.19a5.79,5.79,0,0,0,1.65-2.16c.23-.64.22-1,0-1.18s-.68.11-1.28.78a14.47,14.47,0,0,0-2.09,3.81C90.44,97.71,91,97.3,91.61,96.84Zm29.93-26.69q-2.49.75-5,1.56-.44,7.32-.75,14.69A123.67,123.67,0,0,0,121.54,70.15Zm5.25-31.9q.31-11.22-1.43-13.79t-4.22,7.25q-2.48,9.82-4.35,35.69c2-.62,4-1.23,5.94-1.81Q126.48,49.47,126.79,38.25Z"/><path class="cls-1" d="M225.08,99.28a1,1,0,0,1,1,.62c.18.42,0,1-.47,1.88a79.39,79.39,0,0,1-7.47,10.62q-2.59,2.82-4.28,1.63c-1.13-.88-1.75-2.61-1.88-5.19-.54-4-1.09-7.11-1.65-9.47s-1.32-3.28-2.25-2.78-2.2,3.08-3.79,7.75a31.2,31.2,0,0,1-1.68,4.41,3.54,3.54,0,0,1-2.19,2.09q-2.31.5-3.06-3.13a51.24,51.24,0,0,1-.69-11.18q.32-4.82.75-7.32c.29-1.5.31-2.17.06-2A21.68,21.68,0,0,0,195,90.65q-1.87,2.94-5.75,8.75-6.56,11-10.68,14t-6.1.63c-1.31-1.57-2-4-2.18-7.38a37.8,37.8,0,0,1,.9-10q1.13-5,3.25-7.25A4.15,4.15,0,0,1,176,88.4a2,2,0,0,1,1.5.22,2.09,2.09,0,0,1,.94,1.28,2,2,0,0,1-.15,1.41,2.13,2.13,0,0,1-1,1,15.13,15.13,0,0,0-1.62,4.31,59.91,59.91,0,0,0-1.59,7.53,13.67,13.67,0,0,0,0,5.88c.41,1.27,1.54,1,3.37-.66s4.63-5.71,8.38-12A108.49,108.49,0,0,1,193.14,86c2.31-3.09,4.34-4.21,6.09-3.38q1.38,1.18,1.6,5.91c.14,3.14.15,6.24,0,9.28-.05,1.79-.05,3.17,0,4.12a52.12,52.12,0,0,1,2.28-5.75,9.09,9.09,0,0,1,3-3.87c2.12-1.13,3.88-.61,5.28,1.53a25,25,0,0,1,3.19,7.69,60.84,60.84,0,0,1,1.34,6.72c.16,1.08.58,1.38,1.25.9a11.52,11.52,0,0,0,2.41-2.81c.93-1.39,1.94-3,3-4.66.37-.62.75-1.22,1.12-1.81A1.92,1.92,0,0,1,225.08,99.28Zm-51-22a1.87,1.87,0,0,1,.25-1.47,1.9,1.9,0,0,1,1.22-.94,2,2,0,0,1,1.53.25L179.92,77a1.93,1.93,0,0,1,.94,1.22,2,2,0,0,1-.25,1.53,2,2,0,0,1-1.28.91,2.3,2.3,0,0,1-1.54-.22l-2.87-1.81A2.19,2.19,0,0,1,174,77.31Z"/><path class="cls-1" d="M272.54,61.59q0,1.19-.06,2.37-.5,17-.69,34.41t.57,34.34a10.14,10.14,0,0,0,.43,2.79,2.61,2.61,0,0,0,.63,1,3.07,3.07,0,0,1,.19.34,1.15,1.15,0,0,1,.06.41,11.76,11.76,0,0,1-.63,2.5q-2.06,4-3.21,2.06t-1.47-8.94q-.37-8-.69-23.72t-.13-30.31q.19-14.59,1.44-19.16.31-9.06.81-17.18a347.62,347.62,0,0,0-46.37,9.93,1.86,1.86,0,0,1-1.53-.15,2,2,0,0,1,.47-3.72,333.44,333.44,0,0,1,47.75-10.13q.93-18.93,4-25.25c2-4.2,3.64-4.27,4.87-.18s1,12.23-.78,24.43q10.06-1.05,20.25-1.37a2.09,2.09,0,0,1,1.47.56,1.93,1.93,0,0,1,.59,1.44A2.08,2.08,0,0,1,300,39.5a2,2,0,0,1-1.41.65q-10.62.32-21.06,1.44-1.31,6.55-2.75,12.25-1.07,4.38-2.06,7.5Zm3.35-40.28c.06-3.86-.19-4.72-.75-2.6S274,27.28,273.42,38L274,38A125.53,125.53,0,0,0,275.89,21.31Z"/><path class="cls-1" d="M290.33,92.09a2,2,0,0,1-.16,1.5,1.74,1.74,0,0,1-.31.44,10.56,10.56,0,0,1,1.62,3.18,17.07,17.07,0,0,1,.75,3.75,4.52,4.52,0,0,0,1.38-.81q2-1.5,3.87-6,1.88-13.82,3.94-19.09c1.38-3.52,2.49-4.79,3.35-3.81s1.09,3.58.71,7.81a64.15,64.15,0,0,1-4,15.78c0,.42-.1.85-.18,1.31q-1.38,13.13.12,17.78t4.66.75q3.15-3.9,6.72-16.47a36.3,36.3,0,0,1,1.37-4.4c.46-1.15,1.06-1.8,1.81-2,1.42-.33,2.32.33,2.69,2,.17.79.31,1.58.44,2.37a22.39,22.39,0,0,0,1.06,4.32,2.77,2.77,0,0,0,2.28,2.06q1.6.18,4.72-2.44c.46-.29.8-.34,1-.15a.9.9,0,0,1,.28.87,1.44,1.44,0,0,1-.68,1l-.69.56c-.79.59-1.64,1.16-2.53,1.72a8.91,8.91,0,0,1-2.6,1.16q-3.75,1.18-5.68-4.81-3.57,12.18-8.28,17.22t-8.19,1.59q-3.46-3.44-3.1-16.56a6.4,6.4,0,0,1-.62.56,8.1,8.1,0,0,1-4.06,1.75q-1.26,5.37-5.25,6.41t-7-2.47q-3-3.51-1.22-11.69a11.68,11.68,0,0,1,3.12-5.81q3-3,7.63-.63A2,2,0,0,1,290.33,92.09Zm-7.78,6.25q-1.19,5.05,0,7.31c.79,1.5,1.79,2.14,3,1.91s2.06-1.28,2.56-3.16a9,9,0,0,1-2.81-2,8.68,8.68,0,0,1-2.5-5A3.26,3.26,0,0,0,282.55,98.34Z"/><path class="cls-1" d="M340,92.37a2.19,2.19,0,0,1,.28,1.53,1.91,1.91,0,0,1-.87,1.25,2,2,0,0,1-1.56.25c-1.59-.58-2.95,0-4.1,1.72a16.63,16.63,0,0,0-2.37,6.34,14.78,14.78,0,0,0,0,6.32q.69,2.56,3.06,1.65t6.69-7.59q4.31-6.69,10.94-21.56-.13-25.44,2.68-40.07t6.29-18.93q3.46-4.32,5.37,1.15t-.12,20.19q-2,14.72-10.16,38.28-.25,7-.31,13.69A46.67,46.67,0,0,1,360.15,85q2.69-4.87,6.69-5.37c2.7,0,4.49,1.42,5.34,4.25a44.84,44.84,0,0,1,1.66,9.87c.2,2.3.45,4.39.75,6.29a7.15,7.15,0,0,0,1.43,3.84,2.2,2.2,0,0,0,1.44.56,5.06,5.06,0,0,0,2.78-.75,14.54,14.54,0,0,0,4-3.44c.46-.5.89-.7,1.28-.62a.78.78,0,0,1,.63.84,2.85,2.85,0,0,1-.85,1.78q-4.31,4.64-7.21,5.54a4.5,4.5,0,0,1-4.79-.91,10.32,10.32,0,0,1-2.43-5.28,62,62,0,0,1-1-7.47c-.25-2.75-.57-5.17-.94-7.25s-1-3.15-1.81-3.19c-2.13.34-3.92,2.55-5.38,6.66A82.34,82.34,0,0,0,358.24,104q-1.28,7.53-1.84,12.21a18.46,18.46,0,0,1-.72,3.82,1.82,1.82,0,0,1-1.84,1.37c-1.42.09-2.13-1.29-2.13-4.12q-.06-10.82.13-24.44-6.69,14.05-11.82,19.41c-3.41,3.56-6.23,5.08-8.43,4.56s-3.76-2.21-4.66-5.06a20.8,20.8,0,0,1-.56-9.41,15.82,15.82,0,0,1,3.81-8.47q3-3.34,8.53-2.34A1.86,1.86,0,0,1,340,92.37Zm24.28-53.06q1.44-10.41.07-11t-3.75,9.44q-2.38,10-3.82,31.46Q362.85,49.71,364.27,39.31Z"/></svg>