<?xml version="1.0" encoding="utf-8"?>
<!-- Generator: Adobe Illustrator 22.1.0, SVG Export Plug-In . SVG Version: 6.00 Build 0)  -->
<svg version="1.1" id="Слой_1" xmlns="http://www.w3.org/2000/svg" xmlns:xlink="http://www.w3.org/1999/xlink" x="0px" y="0px"
	 width="39px" height="39.1px" viewBox="0 0 39 39.1" style="enable-background:new 0 0 39 39.1;" xml:space="preserve">
<style type="text/css">
	.st0{clip-path:url(#SVGID_2_);}
</style>
<g>
	<defs>
		<rect id="SVGID_1_" y="0" width="39" height="39.1"/>
	</defs>
	<clipPath id="SVGID_2_">
		<use xlink:href="#SVGID_1_"  style="overflow:visible;"/>
	</clipPath>
	<path class="st0" d="M37.9,13.1l-18.1-13C19.7,0,19.6,0,19.5,0c-0.1,0-0.2,0.1-0.4,0.1l-18,13C0.4,13.6,0,14.4,0,15.2v3.2
		c0,0.3,0.2,0.5,0.5,0.5h2.1c0.9,0,1.6,0.7,1.6,1.6v16c0,1.4,1.2,2.6,2.6,2.6h25.6c1.4,0,2.6-1.2,2.6-2.6v-16c0-0.9,0.7-1.6,1.6-1.6
		h1.9c0.3,0,0.5-0.2,0.5-0.5v-3.2C39,14.4,38.6,13.6,37.9,13.1 M38,17.9h-1.6c-1.4,0-2.6,1.2-2.6,2.6v16c0,0.9-0.7,1.6-1.6,1.6H6.7
		c-0.9,0-1.6-0.7-1.6-1.6v-16c0-1.4-1.2-2.6-2.6-2.6H1v-2.7c0-0.5,0.3-1,0.5-1.3l18-12.9l17.9,12.8C38,14.3,38,15,38,15.2V17.9z"/>
	<path class="st0" d="M23.1,23.6L23.1,23.6l-0.1-2.9c0-1.9-1.6-3.6-3.6-3.6c-1.9,0-3.6,1.6-3.6,3.6v2.9l-0.1,0.1
		c-0.6,0.7-0.9,1.7-0.9,2.7c0,0.3,0.3,0.5,0.5,0.5c0.2,0,0.5-0.2,0.5-0.5c0-0.9,0.3-1.7,0.9-2.3c0.7-0.8,1.6-1.2,2.6-1.2
		c1,0,2,0.4,2.7,1.2c0.5,0.6,0.8,1.5,0.8,2.3c0,0.8-0.3,1.7-0.8,2.3c-0.7,0.7-1.7,1.2-2.7,1.2c-0.7,0-1.4-0.2-2-0.7
		c-0.1-0.1-0.2-0.1-0.3-0.1c-0.2,0-0.4,0.1-0.4,0.2c-0.1,0.1-0.1,0.2-0.1,0.4c0,0.1,0.1,0.3,0.2,0.3c0.7,0.5,1.6,0.8,2.6,0.8
		c1.3,0,2.5-0.6,3.5-1.5c0.7-0.8,1.1-1.8,1.1-3C24,25.3,23.7,24.3,23.1,23.6 M22,22.6l-0.6-0.3c-0.5-0.3-1.3-0.5-2-0.5
		c-0.7,0-1.4,0.2-2,0.5L17,22.6v-1.9c0-1.4,1.1-2.5,2.5-2.5c1.4,0,2.5,1.1,2.5,2.5V22.6z"/>
	<path class="st0" d="M20.3,26.2c0,0.2-0.1,0.4-0.2,0.5c-0.2,0.2-0.3,0.2-0.5,0.2c-0.2,0-0.4-0.1-0.5-0.2c-0.2-0.2-0.2-0.3-0.2-0.5
		c0-0.2,0.1-0.4,0.2-0.5c0.2-0.2,0.3-0.2,0.5-0.2c0.2,0,0.4,0.1,0.5,0.2C20.2,25.8,20.3,26,20.3,26.2"/>
</g>
</svg>
