<?xml version="1.0" encoding="utf-8"?>
<!-- Generator: Adobe Illustrator 22.1.0, SVG Export Plug-In . SVG Version: 6.00 Build 0)  -->
<svg version="1.1" id="Слой_1" xmlns="http://www.w3.org/2000/svg" xmlns:xlink="http://www.w3.org/1999/xlink" x="0px" y="0px"
	 width="39px" height="39.1px" viewBox="0 0 39 39.1" style="enable-background:new 0 0 39 39.1;" xml:space="preserve">
<style type="text/css">
	.st0{clip-path:url(#SVGID_2_);}
</style>
<g>
	<defs>
		<rect id="SVGID_1_" y="0" width="39" height="39.1"/>
	</defs>
	<clipPath id="SVGID_2_">
		<use xlink:href="#SVGID_1_"  style="overflow:visible;"/>
	</clipPath>
	<path class="st0" d="M37.9,13.1l-18.1-13C19.7,0,19.6,0,19.5,0c-0.1,0-0.2,0.1-0.4,0.1l-18,13C0.4,13.6,0,14.4,0,15.2v3.2
		c0,0.3,0.2,0.5,0.5,0.5h2.1c0.9,0,1.6,0.7,1.6,1.6v16c0,1.4,1.2,2.6,2.6,2.6h25.6c1.4,0,2.6-1.2,2.6-2.6v-16c0-0.9,0.7-1.6,1.6-1.6
		h1.9c0.3,0,0.5-0.2,0.5-0.5v-3.2C39,14.4,38.6,13.6,37.9,13.1 M38,17.9h-1.6c-1.4,0-2.6,1.2-2.6,2.6v16c0,0.9-0.7,1.6-1.6,1.6H6.7
		c-0.9,0-1.6-0.7-1.6-1.6v-16c0-1.4-1.2-2.6-2.6-2.6H1v-2.7c0-0.5,0.3-1,0.5-1.3l18-12.9l17.9,12.8C38,14.3,38,15,38,15.2V17.9z"/>
	<path class="st0" d="M19.6,16.9h-0.4c-1.7,0-3.2,1.4-3.2,3.2v3.2c0,0.8,0.6,1.4,1.4,1.4h2.8v2.6c0,0.1,0,0.1,0,0.2l0,0l0.4,0.7
		L20.3,29c-0.1,0.1-0.1,0.3,0,0.5l0.4,0.7l-0.4,0.7c-0.4,0.4-0.6,0.6-0.9,0.6c-0.3,0-0.7-0.3-0.8-0.5l-0.4-0.7l0.5-0.7
		c0.1-0.1,0.1-0.3,0-0.5l-0.5-0.7l0.5-0.7c0-0.1,0.1-0.2,0.1-0.2v-0.7c0-0.3-0.2-0.4-0.4-0.4c-0.3,0-0.4,0.2-0.4,0.4v0.5l-0.5,0.8
		c-0.1,0.1-0.1,0.3,0,0.5l0.4,0.7l-0.4,0.7c-0.1,0.1-0.1,0.3,0,0.5l0.6,0.9h0l0,0.1c0.5,0.6,1,0.8,1.5,0.8c0.6,0,1.1-0.3,1.5-0.8
		l0.1-0.1l0.6-0.9c0.1-0.1,0.1-0.4,0-0.5l-0.4-0.7l0.4-0.7c0.1-0.1,0.1-0.3,0-0.5l-0.5-0.8v-2.5h0.4c0.8,0,1.4-0.6,1.4-1.4v-3.2
		C22.8,18.3,21.4,16.9,19.6,16.9 M21.9,23.3c0,0.3-0.2,0.6-0.6,0.6h-4c-0.3,0-0.6-0.2-0.6-0.6v-3.2c0-1.3,1-2.3,2.3-2.3h0.5
		c1.3,0,2.3,1,2.3,2.3V23.3z"/>
	<path class="st0" d="M20.6,20.3c0,0.2-0.2,0.4-0.4,0.4c-0.3,0-0.4-0.2-0.4-0.4c0-0.2-0.2-0.4-0.4-0.4c-0.2,0-0.4,0.2-0.4,0.4
		c0,0.3-0.2,0.4-0.4,0.4c-0.3,0-0.4-0.2-0.4-0.4c0-0.7,0.6-1.3,1.3-1.3S20.6,19.6,20.6,20.3"/>
</g>
</svg>
