<?xml version="1.0" encoding="utf-8"?>
<!-- Generator: Adobe Illustrator 22.1.0, SVG Export Plug-In . SVG Version: 6.00 Build 0)  -->
<svg version="1.1" id="Layer_1" xmlns="http://www.w3.org/2000/svg" xmlns:xlink="http://www.w3.org/1999/xlink" x="0px" y="0px"
	 width="160px" height="50px" viewBox="0 0 160 50" style="enable-background:new 0 0 160 50;" xml:space="preserve">
<style type="text/css">
	.st0{fill:#723534;}
	.st1{fill:#FFFFFF;}
</style>
<g>
	<path class="st0" d="M41.1,3.1c-0.5-0.3-1.4-0.4-2.2,0.2s-0.5,2.1-0.5,2.1l-6.2,6.7l-4.8-2.7L29.2,7c0,0,2.7,0.8,3.9-1.5
		c2.4-4.5-4.2-7.4-6.1-3c-0.7,1.6,0.3,3,0.3,3L25.1,8L23,6.8l-15.7,9v11.6l-3.7,4.1c0,0-3.1-0.9-3.2,2.3c0,1.3,1.4,2.1,2.2,2.1
		c0.9,0,1.8-0.4,2.2-1.4c0.3-0.9,0.1-1.8,0.1-1.8L7.4,30v9h2.7l-3.3,3.9c0,0-2.2-0.1-3.3,0.8C1.9,44.9,2.3,48,3.7,49
		c1.9,1.4,4.5,0.3,5.2-1.4c0.6-1.5-0.2-3.3-0.2-3.3l4.7-5.4h5.3l-2.1,2.4c0,0-1.2-0.2-1.7,0.2c-0.8,0.3-1.6,1.6-1.1,2.7
		c0.4,1,1.4,1.4,2.6,1.3c2.2-1,1.4-2.9,1.4-2.9l3.2-3.7h17.7l-0.1-23.1l-5-2.8l5.9-6.5c0,0,0.9,0,1.3-0.2c0.6-0.3,1-0.7,1.1-1.4
		C42,4.3,41.5,3.4,41.1,3.1z M29,3.5c0.1-0.6,0.6-0.9,0.8-1c1-0.2,1.5,0.3,1.7,1s-0.1,1-0.4,1.3S30.1,5,29.8,5
		C29.5,4.9,28.9,4.2,29,3.5z M5,46.9c-0.7-1.8,1-1.6,1-1.6s0.7,0.1,0.8,0.8C7,47.4,5.2,47.5,5,46.9z M36.3,17.4c0,0,0,12.8,0,19.2
		c-8.8,0-17.6,0-26.4,0c0-6.4,0-12.8,0-19.2c4.4-2.5,13.3-7.6,13.3-7.6L36.3,17.4z"/>
	<path class="st0" d="M23.1,11.3l-11.9,6.8c0,0,0,11.3,0,17c7.9,0,15.9,0,23.9,0c0-5.7,0-17,0-17L23.1,11.3z M32.5,32.7H13.7V19.6
		l9.4-5.5l9.4,5.4V32.7z"/>
	<g>
		<path class="st1" d="M55.6,20.4v1.8c0,0-0.9-0.6-2.6-0.6c-2.3,0-4,0.9-3.9,3.6c0,0.7,0.1,1.6,0.5,2.1c2,2.7,6.1,0.9,6.1,0.9V30
			c0,0-2.4,1-5.9-0.1c-1.7-0.5-3.1-3.4-2.4-6.2C48.5,18.3,55.6,20.4,55.6,20.4z"/>
		<path class="st1" d="M63.5,25.9l-1.7-3.8l-3.3,8.2h-2L60.9,20H63l4.4,10.3c0,0-1.3,0-2,0c-0.2-0.4-1.3-2.8-1.3-2.8s-2.2,0-3.3,0
			l0.7-1.6H63.5z"/>
		<path class="st1" d="M68.6,20c0,0,3.7,0,5.5,0c1.1,0,1.9,0.8,2.2,1.9c0.2,0.6,0.1,1.4-0.2,2.1c-0.2,0.6-0.8,1.1-1.3,1.5
			c-0.3,0.2-0.9,0.5-0.9,0.5l3.2,4.4h-2.4l-3-4.4c0,0,0-0.6,0-1c1,0,2.7-0.6,2.7-2.2c0-0.8-0.7-1.1-0.7-1.1s-1.7,0-3.2,0
			c0,2.9,0,5.7,0,8.6c-0.7,0-1.3,0-2,0C68.6,26.9,68.6,20,68.6,20z"/>
		<path class="st1" d="M77,20c2.6,0,5.1,0,7.7,0c0,0.6,0,1.1,0,1.7c-0.9,0-1.9,0-2.8,0c-0.2,0.7-0.1,2-0.1,2.8c0,1.9,0,3.8,0,5.8
			c-0.6,0-1.2,0-1.9,0c0-2.9,0-5.7,0-8.6c-1,0-2,0-2.9,0C77,21.1,77,20.6,77,20z"/>
		<path class="st1" d="M85.9,20c2.3,0,4.6,0,6.9,0c0.1,0.4,0.1,1.1,0.1,1.7c-1.7,0-3.5,0-5.2,0c0,0.8,0,1.7,0,2.5c1.6,0,3.3,0,4.9,0
			c0,0.6,0,1.2,0,1.8c-1.6,0-3.3,0-4.9,0c0,0.9,0,1.8,0,2.6c1.8,0,3.5,0,5.3,0c0,0.6,0,1.1,0,1.7c-2.4,0-4.8,0-7.1,0
			C85.9,26.9,85.9,23.4,85.9,20z"/>
		<path class="st1" d="M94.8,20c0,0,2.7,0,5.1,0c1.3,0,2.4,0.8,2.5,1.9c0.1,0.6,0.2,1.3-0.1,2c-0.5,1.1-2.2,2.1-2.2,2.1
			s2.9,3.7,3.1,4.4c-0.8,0-1.6,0-2.3,0c-0.7-1.4-3-4.4-3-4.4s0-0.7,0-1c3.1-0.1,3.3-3.2,1.8-3.2c-1.4,0-2.9,0-2.9,0s0,5.7,0,8.6
			c-0.7,0-1.3,0-2,0C94.8,26.9,94.8,20,94.8,20z"/>
		<path class="st1" d="M107.5,20c0.6,0,1.2,0,1.9,0c0,1.3,0,4.3,0,4.3h5.1c0,0,0-2.9,0-4.3c0.6,0,1.2,0,1.9,0c0,3.4,0,6.8,0,10.3
			c-0.6,0-1.2,0-1.9,0c0-1.5,0-2.9,0-4.4c-1.7,0-5.1,0-5.1,0s0,3.1,0,4.4c-0.6,0-1.2,0-1.9,0C107.5,26.9,107.5,23.4,107.5,20z"/>
		<path class="st1" d="M130.1,20c0.7,0,1.3,0,2,0c1.1,2.6,3.5,7.7,3.5,7.7L139,20h1.9c0,0,0,7,0,10.3c-0.6,0-1.2,0-1.8,0
			c0-2.2,0-4.5,0-6.7c-0.1,0-0.2,0-0.2,0l-2.5,6.7c0,0-1.1,0-1.7,0c-0.9-2.3-1.8-4.6-2.7-6.9h-0.1c0,2.3,0,4.6,0,6.9
			c-0.6,0-1.2,0-1.8,0C130.1,26.9,130.1,23.4,130.1,20z"/>
		<path class="st1" d="M143,20c2.3,0,7,0,7,0v1.7c0,0-3.5,0-5.2,0c0,0.8,0,1.7,0,2.5c1.6,0,3.3,0,4.9,0c0,0.6,0,1.2,0,1.8
			c-1.6,0-3.3,0-4.9,0c0,0.9,0,1.8,0,2.6c1.8,0,3.5,0,5.3,0c0,0.6,0,1.1,0,1.7c-2.4,0-4.8,0-7.1,0C143,26.9,143,23.4,143,20z"/>
		<path class="st1" d="M151.7,29.9c0-0.6,0-1.2,0-1.8h0.1c6.5,1.9,6-1.2,5.6-1.8c-0.7-1.1-5.2,0.6-5.9-2.4c-0.7-3.1,1.8-4,4.2-4
			c1.2,0,3.3,0.5,3.3,0.5v1.7c0,0-5-1.4-5.6,0.2c-1.1,2.8,1.9,1.5,3.7,2c1.1,0.3,2,0.9,2.2,2.1c0.2,0.8-0.1,1.7-0.3,2.2
			C157.9,31.1,154.6,30.3,151.7,29.9z"/>
		<path class="st1" d="M127.5,21.9c-1.9-2.9-6.5-1.7-7.1-1.3c-0.7,0.4-1.5,1.3-2,2.6c-0.2,0.8-0.5,3.1,0.5,4.9s4.2,2.9,6.8,1.8
			C128.2,28.9,129.3,24.6,127.5,21.9z M125.7,27.7c-0.4,0.5-1.2,0.9-1.9,1c-3.6,0.5-4.5-2.9-3.5-5.5c0.5-1.2,1.5-1.6,2.5-1.7
			c2.2,0,3.5,0.9,3.5,3.2C126.4,25.9,126.2,27,125.7,27.7z"/>
	</g>
</g>
</svg>
