<?xml version="1.0" encoding="utf-8"?>
<!-- Generator: Adobe Illustrator 23.0.0, SVG Export Plug-In . SVG Version: 6.00 Build 0)  -->
<svg version="1.1" id="Layer_1" xmlns="http://www.w3.org/2000/svg" xmlns:xlink="http://www.w3.org/1999/xlink" x="0px" y="0px"
	 viewBox="0 0 512 512" enable-background="new 0 0 512 512" xml:space="preserve">
<path d="M291.9,506h-80.1c-13.4,0-24.3-10.9-24.3-24.3V301.1h-46.7c-13.4,0-24.3-10.9-24.3-24.3v-77.4c0-13.4,10.9-24.3,24.3-24.3
	h46.7v-38.8c0-38.4,12.1-71.1,34.9-94.5c22.9-23.5,55-36,92.7-36l61.1,0.1c13.4,0,24.2,10.9,24.2,24.3v71.9
	c0,13.4-10.9,24.3-24.2,24.3l-41.1,0c-12.5,0-15.7,2.5-16.4,3.3c-1.1,1.3-2.5,4.9-2.5,14.9v30.6H373c4.3,0,8.4,1.1,12,3
	c7.7,4.3,12.5,12.4,12.5,21.2l0,77.4c0,13.4-10.9,24.2-24.3,24.2h-57.1v180.6C316.1,495.1,305.2,506,291.9,506z M216.8,476.7h70V288
	c0-8.9,7.3-16.2,16.2-16.2h65.2l0-67.3H303c-8.9,0-16.2-7.3-16.2-16.2v-43.7c0-11.5,1.2-24.5,9.8-34.3C307,98.5,323.5,97.2,335,97.2
	l36.1,0V35.4l-56-0.1c-60.6,0-98.2,38.8-98.2,101.2v51.9c0,8.9-7.3,16.2-16.2,16.2h-54.8v67.3h54.8c8.9,0,16.2,7.3,16.2,16.2V476.7z
	 M376.1,35.4L376.1,35.4L376.1,35.4z"/>
</svg>
