<?xml version="1.0" encoding="utf-8"?>
<!-- Generator: Adobe Illustrator 23.0.0, SVG Export Plug-In . SVG Version: 6.00 Build 0)  -->
<svg version="1.1" id="Layer_1" xmlns="http://www.w3.org/2000/svg" xmlns:xlink="http://www.w3.org/1999/xlink" x="0px" y="0px"
	 viewBox="0 0 512 512" enable-background="new 0 0 512 512" xml:space="preserve">
<g>
	<g>
		<g>
			<path d="M373.7,7H138.3C65.4,7,6,66.4,6,139.3v235.3C6,447.6,65.4,507,138.3,507h235.3c73,0,132.3-59.4,132.3-132.3V139.3
				C506,66.4,446.6,7,373.7,7z M476.6,374.7c0,56.8-46.2,103-103,103H138.3c-56.8,0-103-46.2-103-103V139.3c0-56.8,46.2-103,103-103
				h235.3c56.8,0,103,46.2,103,103V374.7z"/>
		</g>
	</g>
</g>
<g>
	<g>
		<g>
			<path d="M365.6,239.9c-3.5-23.5-14.2-44.8-31-61.5c-16.8-16.8-38.1-27.5-61.5-31c-5.3-0.8-10.7-1.2-16.1-1.2s-10.8,0.4-16.1,1.2
				c-29,4.3-54.6,19.7-72.1,43.2c-17.5,23.6-24.7,52.5-20.4,81.5c4.3,29,19.6,54.6,43.2,72.1c19.1,14.2,41.6,21.6,65.2,21.6
				c5.4,0,10.9-0.4,16.3-1.2c29-4.3,54.6-19.6,72.1-43.2C362.7,297.8,369.9,268.9,365.6,239.9z M320,302.7
				c-12.5,16.8-30.8,27.8-51.5,30.9c-3.9,0.6-7.8,0.9-11.7,0.9c-16.8,0-32.9-5.3-46.6-15.5c-16.8-12.5-27.8-30.8-30.9-51.5
				c-3.1-20.7,2.1-41.4,14.6-58.2c12.5-16.8,30.8-27.8,51.5-30.9c3.8-0.6,7.7-0.9,11.5-0.9c3.8,0,7.7,0.3,11.5,0.9
				c34.4,5.1,61,31.7,66.1,66.1C337.7,265.2,332.5,285.8,320,302.7z"/>
		</g>
	</g>
</g>
<g>
	<g>
		<path d="M400,113c-3.9-3.9-9.2-6.1-14.6-6.1s-10.8,2.2-14.6,6.1c-3.9,3.9-6.1,9.2-6.1,14.6s2.2,10.8,6.1,14.6
			c3.9,3.9,9.2,6.1,14.6,6.1s10.8-2.2,14.6-6.1c3.9-3.9,6.1-9.2,6.1-14.6C406.1,122.1,403.9,116.8,400,113z"/>
	</g>
</g>
</svg>
