<?xml version="1.0" encoding="utf-8"?>
<!-- Generator: Adobe Illustrator 23.0.0, SVG Export Plug-In . SVG Version: 6.00 Build 0)  -->
<svg version="1.1" id="Layer_1" xmlns="http://www.w3.org/2000/svg" xmlns:xlink="http://www.w3.org/1999/xlink" x="0px" y="0px"
	 viewBox="0 0 512 512" enable-background="new 0 0 512 512" xml:space="preserve">
<g>
	<path d="M256,7C118.3,7,6.2,119.1,6.2,256.8S118.3,506.6,256,506.6s249.8-112.1,249.8-249.8S393.7,7,256,7z M256,478
		c-122,0-221.2-99.2-221.2-221.2S134,35.6,256,35.6s221.2,99.2,221.2,221.2S378,478,256,478z"/>
	<path d="M184.5,199.3c-7.9,0-14.3,6.4-14.3,14.3v118.2c0,7.9,6.4,14.3,14.3,14.3c7.9,0,14.3-6.4,14.3-14.3V213.6
		C198.8,205.7,192.4,199.3,184.5,199.3z"/>
	<path d="M184.5,132.6c-3.8,0-7.4,1.5-10.1,4.2c-2.7,2.7-4.2,6.3-4.2,10.1c0,3.8,1.5,7.4,4.2,10.1c2.7,2.7,6.3,4.2,10.1,4.2
		c3.8,0,7.4-1.5,10.1-4.2c2.7-2.7,4.2-6.4,4.2-10.1c0-3.8-1.5-7.4-4.2-10.1C192,134.1,188.3,132.6,184.5,132.6z"/>
	<path d="M308,210.4c-15,0-28.8,4.8-40.1,13v-9.8c0-7.9-6.4-14.3-14.3-14.3c-7.9,0-14.3,6.4-14.3,14.3v118.2
		c0,7.9,6.4,14.3,14.3,14.3c7.9,0,14.3-6.4,14.3-14.3v-52.7c0-22.1,18-40.1,40.1-40.1c22.1,0,40.1,18,40.1,40.1v55.8
		c0,7.9,6.4,14.3,14.3,14.3c7.9,0,14.3-6.4,14.3-14.3v-55.8C376.7,241.2,345.9,210.4,308,210.4z"/>
</g>
</svg>
